<svg viewBox="0 0 100 100" fill="none" xmlns="http://www.w3.org/2000/svg">
<g transform="translate(0,-8) scale(1.15) translate(-7.5,-7.5)">
<path d="M50.5,62.4 Q38.7,59.8 26.4,60.8 Q36.6,71.7 49.5,67.6 Z" fill="#15181b"/>
<path d="M51.2,62.6 Q40.2,56.3 27.4,54.0 Q35.0,67.0 48.8,67.4 Z" fill="#15181b"/>
<path d="M51.8,63.0 Q42.9,53.1 30.4,47.3 Q34.9,62.0 48.2,67.0 Z" fill="#15181b"/>
<path d="M52.2,63.6 Q46.7,50.8 35.4,41.6 Q36.5,57.2 47.8,66.4 Z" fill="#15181b"/>
<path d="M52.5,64.3 Q51.1,49.7 42.1,37.3 Q39.6,53.0 47.5,65.7 Z" fill="#15181b"/>
<path d="M52.6,65.0 Q56.0,50.0 50.0,35.0 Q44.0,50.0 47.4,65.0 Z" fill="#15181b"/>
<path d="M52.5,65.7 Q60.4,53.0 57.9,37.3 Q48.9,49.7 47.5,64.3 Z" fill="#15181b"/>
<path d="M52.2,66.4 Q63.5,57.2 64.6,41.6 Q53.3,50.8 47.8,63.6 Z" fill="#15181b"/>
<path d="M51.8,67.0 Q65.1,62.0 69.6,47.3 Q57.1,53.1 48.2,63.0 Z" fill="#15181b"/>
<path d="M51.2,67.4 Q65.0,67.0 72.6,54.0 Q59.8,56.3 48.8,62.6 Z" fill="#15181b"/>
<path d="M50.5,67.6 Q63.4,71.7 73.6,60.8 Q61.3,59.8 49.5,62.4 Z" fill="#15181b"/>
<path d="M51.1,63.2 Q44.5,55.9 33.9,54.9 Q39.4,64.0 48.9,66.8 Z" fill="#3f8f5f"/>
<path d="M51.5,63.6 Q46.6,54.6 36.4,50.7 Q39.8,61.1 48.5,66.4 Z" fill="#3f8f5f"/>
<path d="M51.8,64.0 Q49.2,53.7 40.1,47.1 Q40.9,58.3 48.2,66.0 Z" fill="#3f8f5f"/>
<path d="M52.0,64.5 Q51.9,53.5 44.7,44.4 Q42.7,55.9 48.0,65.5 Z" fill="#3f8f5f"/>
<path d="M52.1,65.0 Q54.8,54.0 50.0,43.0 Q45.2,54.0 47.9,65.0 Z" fill="#3f8f5f"/>
<path d="M52.0,65.5 Q57.3,55.9 55.3,44.4 Q48.1,53.5 48.0,64.5 Z" fill="#3f8f5f"/>
<path d="M51.8,66.0 Q59.1,58.3 59.9,47.1 Q50.8,53.7 48.2,64.0 Z" fill="#3f8f5f"/>
<path d="M51.5,66.4 Q60.2,61.1 63.6,50.7 Q53.4,54.6 48.5,63.6 Z" fill="#3f8f5f"/>
<path d="M51.1,66.8 Q60.6,64.0 66.1,54.9 Q55.5,55.9 48.9,63.2 Z" fill="#3f8f5f"/>
</g>
</svg>
